<svg width="198" height="59" viewBox="0 0 198 59" version="1.1" xmlns="http://www.w3.org/2000/svg"><path d="M29.498 43.205V32.62c0-.25-.2-.45-.45-.45s-.45.2-.45.45v10.536l-2.097 2.647c-.075.1-.1.2-.1.325a.463.463 0 0 0 .175.3c.075.074.175.1.275.1.15 0 .275-.05.35-.176l1.822-2.272 1.798 2.272c.075.1.225.175.35.175.1 0 .2-.025.274-.1.2-.15.225-.424.075-.624l-2.022-2.597zm16.778-12.31l-2.272-1.822 2.272-1.798c.2-.15.225-.424.075-.624-.15-.175-.45-.225-.624-.075L43.155 28.6H32.57c-.25 0-.45.2-.45.45 0 .249.2.449.45.449h10.536l2.647 2.097c.075.075.175.1.275.1.15 0 .274-.05.35-.175.074-.1.1-.2.1-.325-.05-.124-.1-.25-.2-.3zm-16.379-1.897l10.886-10.886a.625.625 0 0 0 .2-.45.625.625 0 0 0-.2-.449.663.663 0 0 0-.924 0L28.973 28.1 18.087 17.213a.663.663 0 0 0-.924 0 .625.625 0 0 0-.2.45c0 .174.075.324.2.449L28.05 28.998 17.163 39.884a.625.625 0 0 0-.2.45c0 .175.075.324.2.45.125.124.275.2.45.2a.625.625 0 0 0 .449-.2l10.886-10.887 10.887 10.886c.124.125.274.2.449.2a.625.625 0 0 0 .45-.2.625.625 0 0 0 .2-.45.625.625 0 0 0-.2-.449L29.896 28.998zm133.831-7.39v.898h-.1s-1.523-4.12-8.015-4.12c-6.467 0-10.461 4.944-10.461 12.185 0 7.241 4.27 12.385 10.736 12.385 3.745 0 6.142-1.524 7.59-4.17h.1s-.05.824-.05 1.723v2.122c0 5.368-3.745 7.59-8.439 7.59-3.546 0-6.517-1.672-6.517-1.672l-1.248 2.721c2.347 1.199 5.143 1.923 7.865 1.923 5.942 0 11.61-2.972 11.61-10.637V22.881c0-.724.375-1.049 1.049-1.049h1.972v-2.821h-3.345c-1.973-.025-2.747.874-2.747 2.597zm-7.34 18.426c-4.745 0-7.866-3.745-7.866-9.488 0-5.767 2.722-9.163 7.44-9.163 4.27 0 7.616 2.147 7.616 9.213 0 7.091-3.346 9.438-7.19 9.438zM25.927 29.098c0-.25-.2-.45-.45-.45H14.94l-2.647-2.097a.442.442 0 0 0-.624.075c-.075.1-.1.2-.1.325a.463.463 0 0 0 .175.3l2.272 1.822-2.272 1.798c-.2.15-.225.424-.075.624.075.1.225.175.35.175.1 0 .2-.025.274-.1l2.572-2.022h10.587c.274 0 .474-.2.474-.45zm2.596-14.157v10.587c0 .25.2.449.45.449.249 0 .449-.2.449-.45V14.992l2.097-2.647c.075-.1.1-.2.1-.324a.463.463 0 0 0-.175-.3.442.442 0 0 0-.624.075l-1.823 2.272-1.798-2.272a.442.442 0 0 0-.624-.075c-.2.15-.224.424-.075.624l2.023 2.597zm110.46 24.27V18.96h-3.27v11.56c0 5.219-3.396 10.063-8.864 10.063-4.644 0-5.269-3.346-5.269-7.141v-11.66c0-1.973-.874-2.822-2.921-2.822h-3.396v2.821h2.023c.674 0 1.048.375 1.048 1.049v11.46c0 6.293 2.397 9.364 8.115 9.364 5.268 0 8.44-3.746 9.413-6.093h.1s-.1.774-.1 1.723v1.099c0 1.823.9 2.696 2.922 2.696h3.32V40.26h-2.022c-.724.025-1.099-.325-1.099-1.049zm55.256-20.225c-1.973 0-2.722.899-2.722 2.646v.9h-.1s-1.523-4.12-8.015-4.12c-6.467 0-10.462 4.943-10.462 12.184s4.27 12.385 10.737 12.385c3.745 0 6.142-1.524 7.59-4.17h.1s-.05.824-.05 1.723v2.122c0 5.368-3.745 7.59-8.44 7.59-3.545 0-6.516-1.673-6.516-1.673l-1.248 2.722c2.347 1.199 5.143 1.923 7.865 1.923 5.942 0 11.61-2.972 11.61-10.637V22.906c0-.724.375-1.049 1.049-1.049h1.972v-2.821h-3.37v-.05zm-10.063 21.048c-4.744 0-7.865-3.745-7.865-9.488 0-5.767 2.722-9.163 7.44-9.163 4.27 0 7.616 2.147 7.616 9.213 0 7.091-3.37 9.438-7.19 9.438zm-74.006-.824V27.75c0-5.943-2.123-9.363-8.115-9.363-5.668 0-8.739 3.895-9.588 6.092h-.1s.1-.774.1-1.723v-1.099c0-1.822-.899-2.696-2.921-2.696h-3.371v2.821h2.022c.675 0 1.05.375 1.05 1.049v20.25h3.27V31.52c0-1.149.1-2.247.375-3.27 1.098-3.97 4.644-6.817 8.788-6.817 4.645 0 5.219 3.346 5.219 7.14v11.561c0 2.073.874 2.921 2.921 2.921h3.396v-2.821h-2.023c-.649.05-1.023-.3-1.023-1.024zM57.537 27.675c-.1-.025-.524-.2-1.098-.425.524-.3.923-.524.998-.574a.881.881 0 0 0 .425-.524c.025-.15.025-.275 0-.425a.27.27 0 0 0-.35-.174.27.27 0 0 0-.175.35s.05.174-.15.274c-.1.05-.674.4-1.398.799-.874-.35-1.897-.75-2.496-.974.524-.375 1.398-1.024 2.172-1.598.799.2 1.448.375 1.573.4.225.074.225.224.225.224 0 .15.124.275.274.3.15 0 .275-.125.275-.275a.79.79 0 0 0-.1-.4c-.075-.15-.225-.324-.55-.399-.1-.025-.549-.15-1.123-.3.474-.349.849-.624.924-.674.25-.2.324-.424.35-.574a.712.712 0 0 0-.05-.4c-.05-.124-.225-.2-.375-.15-.15.076-.2.226-.15.375 0 0 .075.15-.125.3-.1.075-.624.474-1.273.949-.899-.225-1.898-.5-2.497-.65l-.1-.024.075-.075c.45-.425 1.224-1.149 1.873-1.773.824.1 1.498.2 1.598.225.25.025.25.2.25.2 0 .15.124.25.274.25h.025c.075 0 .15-.05.2-.1a.284.284 0 0 0 .075-.2c0-.125-.075-.275-.15-.375a.803.803 0 0 0-.574-.325c-.1-.025-.55-.075-1.149-.15.425-.424.774-.724.824-.798.225-.225.275-.45.275-.6a.733.733 0 0 0-.1-.4.282.282 0 0 0-.375-.099.282.282 0 0 0-.1.374s.075.15-.1.325c-.074.075-.574.55-1.148 1.099-.949-.125-2.022-.275-2.672-.375l.2-.25c.425-.499.999-1.198 1.523-1.822.824.025 1.498.025 1.623.025.25 0 .275.175.275.175.025.124.15.224.274.224h.05a.289.289 0 0 0 .175-.125c.05-.05.05-.124.05-.2a.918.918 0 0 0-.2-.374c-.1-.125-.3-.25-.624-.25-.1 0-.55 0-1.173-.025.374-.474.674-.823.724-.873.15-.2.224-.425.2-.65a.846.846 0 0 0-.15-.374c-.1-.125-.275-.125-.4-.05a.281.281 0 0 0-.05.4s.1.124-.05.324c-.075.1-.5.6-1.023 1.223-.874-.024-1.823-.024-2.472-.05h-.2l.125-.174c.35-.55.874-1.374 1.348-2.098.824-.074 1.498-.15 1.598-.174.225-.025.3.124.3.15.05.15.2.224.35.174a.27.27 0 0 0 .174-.35 1.047 1.047 0 0 0-.225-.349.813.813 0 0 0-.649-.175c-.1 0-.55.05-1.173.125.324-.5.574-.899.624-.974.175-.274.175-.499.125-.649a.687.687 0 0 0-.2-.374c-.1-.1-.3-.1-.4 0-.1.1-.1.274 0 .4 0 0 .125.124 0 .324-.05.1-.424.649-.873 1.348-1.05.1-2.248.225-2.672.275l.1-.175c.274-.574.699-1.473 1.098-2.247a142.1 142.1 0 0 0 1.573-.35h.1c.175 0 .225.1.225.125.075.125.25.2.374.125.075-.025.125-.1.15-.15a.346.346 0 0 0 0-.225.635.635 0 0 0-.274-.3c-.175-.124-.425-.15-.674-.1-.1.026-.55.126-1.149.25.275-.549.45-.948.5-1.023a.934.934 0 0 0 .05-.674.828.828 0 0 0-.25-.35.281.281 0 0 0-.4.05c-.1.125-.075.3.05.4 0 0 .125.1.025.324-.05.1-.35.7-.7 1.448-.948.225-2.022.475-2.62.6.199-.6.573-1.648.873-2.547.774-.275 1.398-.5 1.523-.55.175-.05.3.025.325.075.075.125.25.175.374.1a.282.282 0 0 0 .1-.374.794.794 0 0 0-.3-.275c-.2-.1-.449-.1-.674-.025-.1.025-.524.2-1.098.4.2-.575.35-1 .374-1.099.1-.3.05-.524-.025-.674a.794.794 0 0 0-.274-.3.282.282 0 0 0-.375.1.282.282 0 0 0 .1.375s.15.1.075.324c-.025.1-.25.75-.524 1.498-.675.25-1.424.525-2.023.724l-.5.175c.15-.674.375-1.723.575-2.646.724-.375 1.348-.675 1.448-.725.15-.074.3 0 .325.025.1.125.274.125.4.05.05-.05.1-.124.1-.2a.47.47 0 0 0-.05-.2.71.71 0 0 0-.35-.224c-.2-.075-.45-.05-.674.05-.075.05-.5.25-1.05.524.126-.599.226-1.023.25-1.123a.813.813 0 0 0-.124-.674.69.69 0 0 0-.325-.275c-.125-.05-.3 0-.374.15-.05.15 0 .3.15.374 0 0 .15.075.1.3-.026.125-.176.774-.325 1.573-.85.424-1.823.924-2.397 1.199.05-.625.15-1.723.25-2.697.674-.45 1.248-.824 1.348-.899.15-.1.3-.05.324-.025.1.1.3.1.4 0 .1-.1.1-.3 0-.4-.1-.1-.225-.15-.375-.2a.776.776 0 0 0-.649.15c-.075.05-.474.3-.974.65.05-.6.1-1.049.1-1.149a.874.874 0 0 0-.2-.649c-.1-.1-.224-.2-.35-.225-.149-.05-.299.05-.349.175-.05.15.05.3.175.35 0 0 .15.05.15.3 0 .124-.075.773-.15 1.597-.5.325-1.024.674-1.473.974l-.75.5c-.024-.6-.05-1.723-.074-2.697a47.46 47.46 0 0 0 1.223-1.049.398.398 0 0 1 .2-.075c.05 0 .1.025.125.025.125.1.3.075.4-.05.05-.05.074-.125.05-.2a.21.21 0 0 0-.1-.174.985.985 0 0 0-.375-.15.754.754 0 0 0-.624.225c-.075.05-.425.374-.899.749-.025-.6-.025-1.049-.025-1.149 0-.25-.1-.474-.275-.624a.687.687 0 0 0-.374-.2.282.282 0 0 0-.325.225c-.025.15.075.3.225.325 0 0 .175.025.175.274 0 .125.025.774.05 1.598-.55.475-1.174.999-1.648 1.423l-.4.325-.025-.15c-.1-.649-.25-1.648-.374-2.522.55-.599 1.023-1.098 1.098-1.198.15-.15.275-.125.325-.1.125.075.3.025.374-.1a.282.282 0 0 0-.1-.374c-.1-.075-.25-.1-.374-.1h-.025c-.225 0-.45.1-.6.3-.074.074-.374.399-.798.848-.1-.599-.15-1.048-.175-1.148a.911.911 0 0 0-.35-.575 1.103 1.103 0 0 0-.399-.15.277.277 0 0 0-.275.275c0 .15.1.275.275.3 0 0 .175 0 .2.25.025.124.125.774.25 1.573-.625.699-1.349 1.473-1.773 1.947l-.05.05-.15-.574c-.175-.6-.375-1.348-.574-2.023.474-.674.874-1.223.949-1.323.1-.125.174-.15.224-.15h.075c.125.05.3 0 .375-.15.05-.15 0-.3-.15-.374-.125-.05-.275-.075-.4-.05a.912.912 0 0 0-.574.35c-.05.074-.325.449-.674.948a34.943 34.943 0 0 0-.3-1.098.835.835 0 0 0-.4-.525.705.705 0 0 0-.374-.1h-.025c-.15 0-.274.15-.25.3 0 .15.125.25.3.25 0 0 .175 0 .225.225.025.1.2.749.424 1.548-.549.774-1.173 1.647-1.548 2.172v.025c-.224-.55-.649-1.598-1.023-2.497.4-.724.724-1.323.774-1.423.075-.15.2-.175.25-.175h.05c.15.05.299-.05.349-.175a.243.243 0 0 0-.025-.225.188.188 0 0 0-.175-.124c-.125-.05-.275-.025-.424 0a.881.881 0 0 0-.525.424c-.05.075-.274.5-.574 1.024-.225-.55-.4-.974-.45-1.074-.124-.3-.324-.424-.474-.474-.125-.05-.274-.075-.4-.05a.282.282 0 0 0-.224.324c.025.125.15.225.275.225h.075c.05 0 .174.025.25.2.05.1.299.724.598 1.473-.449.824-.973 1.773-1.298 2.347l-.225-.424c-.374-.675-.923-1.648-1.348-2.397.2-.55.35-.95.4-1.024.05-.15.15-.2.25-.2h.05c.124 0 .249-.1.274-.225 0-.074 0-.15-.05-.2-.05-.05-.1-.1-.175-.1a.74.74 0 0 0-.4.05c-.15.076-.349.2-.449.5-.025.05-.1.25-.224.6-.15-.275-.275-.475-.3-.525a.881.881 0 0 0-.524-.424c-.125-.05-.275-.025-.425 0a.336.336 0 0 0-.175.15.243.243 0 0 0-.025.224c.05.15.2.225.35.175h.05c.05 0 .15.025.25.175.05.075.25.45.524.948-.275.725-.65 1.723-1.149 2.997l-.05-.05c-.374-.5-1.023-1.349-1.598-2.098.2-.799.375-1.448.4-1.573.05-.2.2-.224.225-.224h.124V.909c.1-.05.175-.125.175-.25a.284.284 0 0 0-.075-.2c-.05-.05-.125-.075-.224-.1l-.125-.324v.35c-.075.024-.175.05-.25.1a.9.9 0 0 0-.4.549c-.024.1-.124.549-.274 1.123-.375-.474-.65-.849-.7-.924a.912.912 0 0 0-.573-.35.712.712 0 0 0-.4.05c-.15.076-.2.225-.125.375.075.125.225.2.375.125 0 0 .05-.025.075-.025.075 0 .174.05.224.125.075.1.475.624.974 1.273-.2.8-.424 1.698-.574 2.322l-.075.275-.2-.2a63.358 63.358 0 0 1-1.673-1.748c.1-.824.175-1.498.2-1.598.025-.25.2-.25.2-.25.15-.024.274-.149.25-.299 0-.15-.125-.25-.275-.25h-.025a.985.985 0 0 0-.375.15c-.124.1-.274.275-.324.6 0 .1-.075.549-.15 1.148-.425-.424-.724-.749-.799-.824a.894.894 0 0 0-.624-.275c-.15 0-.275.05-.4.1a.282.282 0 0 0-.1.375c.075.125.25.175.375.1 0 0 .125-.1.324.075.075.075.55.549 1.124 1.148-.125.949-.25 2.023-.325 2.672l-.05-.05c-.499-.4-1.323-1.074-2.047-1.648V3.006c0-.25.175-.275.175-.275a.282.282 0 0 0 .225-.324.282.282 0 0 0-.325-.225.712.712 0 0 0-.35.2c-.124.1-.25.3-.25.624V4.18c-.474-.375-.823-.675-.898-.725a.914.914 0 0 0-.65-.2.846.846 0 0 0-.374.15.281.281 0 0 0-.05.4c.1.1.275.125.4.05.025 0 .05-.025.125-.025s.124.025.2.075c.1.075.599.5 1.248.999V7.575c-.525-.324-1.473-.924-2.297-1.448-.1-.824-.175-1.498-.2-1.598-.025-.25.125-.3.125-.3a.27.27 0 0 0 .175-.35.27.27 0 0 0-.35-.174.64.64 0 0 0-.325.25c-.1.125-.2.324-.174.649 0 .1.075.55.124 1.174-.499-.325-.898-.55-.973-.6-.2-.125-.45-.175-.65-.125a.547.547 0 0 0-.349.2c-.1.1-.1.3 0 .4.1.1.3.1.4 0 .024-.025.2-.075.324 0 .1.05.674.424 1.348.849.1.948.25 2.047.325 2.671-.574-.274-1.573-.749-2.447-1.148-.2-.8-.35-1.448-.374-1.573-.05-.225.1-.3.1-.3.15-.075.2-.225.124-.374-.075-.125-.224-.2-.374-.125a.635.635 0 0 0-.3.274.876.876 0 0 0-.1.674c.025.1.125.55.275 1.149-.55-.25-.949-.45-1.049-.5a.906.906 0 0 0-.674-.05.64.64 0 0 0-.325.25c-.1.125-.074.3.05.4.125.075.3.05.4-.05.025-.025.175-.1.324-.025.1.05.7.325 1.449.674.224.924.474 1.998.624 2.622-.574-.2-1.648-.55-2.572-.85-.3-.773-.524-1.397-.574-1.522-.075-.225.05-.325.05-.325.125-.075.175-.25.075-.374-.075-.125-.25-.175-.4-.075-.125.075-.2.175-.274.324-.075.15-.125.375-.025.675.025.074.174.449.399 1.098-.574-.2-.999-.324-1.099-.35a.898.898 0 0 0-.674.05 1.064 1.064 0 0 0-.3.275c-.024.075-.05.15-.024.2a.448.448 0 0 0 .125.175c.124.075.3.025.374-.1a.34.34 0 0 1 .325-.075c.1.025.749.25 1.523.5.25.648.549 1.497.949 2.521l-.3-.05c-.624-.125-1.548-.3-2.347-.474-.375-.724-.7-1.324-.75-1.423-.1-.225.026-.325.026-.325.125-.1.125-.275.05-.4-.1-.124-.275-.124-.4-.05a.71.71 0 0 0-.224.35c-.05.15-.075.4.074.674.05.075.25.5.55 1.049-.6-.125-1.049-.2-1.124-.225a.817.817 0 0 0-.649.125.69.69 0 0 0-.275.325.346.346 0 0 0 0 .224.225.225 0 0 0 .15.15c.125.05.3 0 .375-.15 0 0 .05-.124.224-.124h.075c.125.024.774.15 1.573.324.45.849.95 1.823 1.249 2.372-1.099-.075-1.998-.15-2.697-.2-.474-.674-.849-1.248-.899-1.323-.125-.2-.025-.325-.025-.325.1-.1.1-.3 0-.399-.1-.1-.3-.1-.4 0-.1.1-.149.225-.174.374-.025.15-.025.4.15.65.05.075.324.474.649.973-.674-.05-1.074-.074-1.149-.1a.945.945 0 0 0-.649.2c-.1.1-.2.225-.224.35-.05.15.05.3.2.35.15.05.299-.05.349-.2 0 0 .05-.15.25-.15h.024c.125 0 .775.05 1.598.125.55.799 1.174 1.723 1.524 2.222H7.2c-.624.025-1.673.075-2.597.1-.55-.624-.999-1.124-1.074-1.224-.15-.174-.05-.324-.05-.324.1-.125.075-.3-.05-.4-.124-.1-.3-.05-.399.05a.953.953 0 0 0-.15.4c0 .15.025.4.225.624.05.075.374.424.774.874-.6.025-1.049.05-1.149.05a.914.914 0 0 0-.624.274c-.1.1-.15.225-.175.375 0 .075 0 .15.05.2.05.05.1.1.175.124h.05c.125 0 .25-.1.275-.224 0 0 .025-.175.274-.175.125 0 .774-.025 1.598-.075.65.724 1.374 1.573 1.773 2.023h-.075c-.624.1-1.673.274-2.597.424a58.022 58.022 0 0 1-1.198-1.074c-.175-.174-.1-.3-.1-.324a.282.282 0 0 0-.1-.375.282.282 0 0 0-.374.1.733.733 0 0 0-.1.4c0 .15.075.4.3.599.074.075.424.374.873.774-.599.1-1.048.175-1.123.2a.911.911 0 0 0-.575.35c-.074.124-.124.249-.15.399 0 .075.026.15.076.2.05.05.124.1.2.1.15 0 .274-.126.274-.275 0 0 0-.175.25-.2.124-.025.774-.125 1.573-.25.674.6 1.398 1.274 1.897 1.698l.1.1c-.6.175-1.673.474-2.597.749-.674-.474-1.223-.849-1.323-.924-.2-.15-.125-.3-.125-.3.05-.15 0-.3-.15-.374-.124-.05-.3 0-.374.15-.05.125-.075.274-.05.4.025.15.1.374.375.574.074.05.449.324.948.674-.574.175-1.023.3-1.098.324-.3.1-.45.275-.525.425a.79.79 0 0 0-.1.4c0 .15.125.249.275.249H.56c.15 0 .275-.15.25-.3 0 0 0-.174.225-.25.1-.024.749-.224 1.523-.449.774.55 1.672 1.174 2.197 1.548l-.025.025c-.574.25-1.573.674-2.447 1.049-.724-.375-1.323-.7-1.423-.75-.225-.124-.175-.274-.175-.274.05-.15-.05-.3-.2-.35-.15-.05-.3.05-.35.2a1.075 1.075 0 0 0 0 .4c.05.15.15.374.425.524.075.05.5.275 1.024.55-.55.224-.974.424-1.049.449-.3.125-.424.325-.474.474a.74.74 0 0 0-.05.4c.025.125.15.225.274.225h.05a.282.282 0 0 0 .225-.325s-.025-.175.2-.275c.1-.05.724-.3 1.473-.624.849.45 1.798.949 2.372 1.274-.55.324-1.498.873-2.347 1.348-.774-.3-1.398-.55-1.498-.574-.225-.1-.2-.25-.2-.25a.282.282 0 0 0-.225-.325h-.05c-.15 0-.25.1-.274.225a.74.74 0 0 0 .05.4c.075.15.2.349.5.449.099.025.523.2 1.098.424-.525.3-.924.525-.999.575a.881.881 0 0 0-.424.524c-.025.15-.025.275 0 .424.05.125.15.2.274.2.025 0 .05 0 .1-.025a.27.27 0 0 0 .175-.35s-.05-.15.15-.274c.1-.05.674-.4 1.373-.799.874.35 1.873.724 2.472.949 0 0 .025 0 .025.025-.525.374-1.398 1.048-2.173 1.623-.799-.2-1.448-.375-1.573-.4-.224-.05-.224-.224-.224-.224 0-.15-.125-.275-.275-.3a.277.277 0 0 0-.275.275.79.79 0 0 0 .1.4.9.9 0 0 0 .55.399c.1.025.549.15 1.123.3-.474.349-.849.623-.924.698a.912.912 0 0 0-.35.575c-.024.15 0 .274.05.4.05.099.15.149.25.149.05 0 .075 0 .125-.025.15-.075.2-.225.125-.375 0 0-.075-.15.125-.3.1-.074.624-.474 1.273-.948.9.225 1.923.5 2.547.65.025 0 .05 0 .05.024-.424.4-1.223 1.174-1.947 1.873-.824-.1-1.499-.2-1.598-.2-.25-.025-.25-.2-.25-.2 0-.15-.15-.25-.3-.25-.15.026-.274.15-.25.3 0 .125.075.275.15.375.1.125.275.274.6.324.1.025.549.075 1.148.15-.424.425-.749.724-.824.8a.853.853 0 0 0-.274.623c0 .15.025.275.1.4.05.075.15.125.25.125.05 0 .099-.025.149-.05a.282.282 0 0 0 .1-.375s-.1-.15.075-.324c.075-.075.574-.55 1.148-1.099.85.1 1.773.225 2.422.3l.25.025c-.7.849-1.249 1.548-1.698 2.097-.824 0-1.498 0-1.623-.025-.25 0-.275-.175-.275-.175a.282.282 0 0 0-.324-.225.282.282 0 0 0-.225.325c.025.125.1.25.2.35.1.124.3.25.624.25H4.13c-.425.524-.675.823-.724.898-.2.25-.225.475-.2.65.025.15.075.274.15.374.05.075.124.1.224.1a.36.36 0 0 0 .175-.05c.125-.1.15-.275.05-.4 0 0-.1-.125.05-.324.075-.1.5-.6.999-1.249.824 0 1.723.025 2.372.025h.324l-.175.275c-.35.55-.848 1.323-1.273 2.022-.824.1-1.498.175-1.598.175-.225.025-.3-.125-.3-.125a.27.27 0 0 0-.35-.174.27.27 0 0 0-.174.35.64.64 0 0 0 .25.324c.15.125.324.174.55.174h.099c.1 0 .55-.05 1.174-.124-.325.499-.575.898-.625.973a.85.85 0 0 0-.125.65c.025.15.1.274.2.374.05.05.125.075.2.075.075 0 .15-.025.2-.075.1-.1.1-.3 0-.4 0 0-.125-.124 0-.324.05-.1.424-.674.849-1.348.948-.1 2.047-.225 2.671-.3l-.075.175c-.274.6-.699 1.473-1.073 2.272-.8.2-1.448.35-1.573.375h-.1c-.15 0-.225-.1-.225-.1-.075-.125-.25-.2-.374-.125-.075.025-.125.1-.15.15a.346.346 0 0 0 0 .224c.05.125.15.225.274.3a.862.862 0 0 0 .45.125c.075 0 .15 0 .225-.025.1-.025.549-.125 1.148-.275-.25.55-.45.949-.5 1.049a.934.934 0 0 0-.05.674.64.64 0 0 0 .25.325c.05.05.1.05.175.05.1 0 .175-.05.225-.1.1-.125.075-.3-.05-.4 0 0-.125-.1-.025-.324.05-.1.325-.7.674-1.449.85-.2 1.798-.424 2.447-.574l.175-.05-.025.075c-.2.624-.55 1.623-.824 2.497-.774.275-1.398.524-1.523.55-.05.024-.1.024-.125.024-.1 0-.175-.05-.2-.075-.075-.125-.25-.174-.374-.075-.075.05-.1.1-.125.175-.025.075 0 .15.025.2.075.125.175.2.325.275.1.05.224.075.35.075.099 0 .224-.025.324-.05s.524-.2 1.098-.4c-.2.574-.324.999-.374 1.099a.84.84 0 0 0 .05.674c.075.125.175.225.274.3.05.024.1.05.15.05.1 0 .2-.05.25-.15a.282.282 0 0 0-.1-.375s-.15-.1-.075-.325c.025-.1.25-.749.5-1.523.823-.3 1.722-.649 2.346-.874l.175-.05c-.125.625-.35 1.698-.549 2.647-.724.375-1.323.674-1.448.75-.15.074-.3.024-.325-.026a.34.34 0 0 0-.4-.05c-.124.1-.124.275-.05.4.076.1.2.175.35.225.075.025.175.05.25.05.15 0 .275-.025.424-.1.075-.05.5-.25 1.05-.525-.126.6-.2 1.024-.226 1.124-.05.3.025.524.125.65a.69.69 0 0 0 .325.274c.025.025.075.025.1.025.1 0 .2-.075.25-.175.05-.15 0-.3-.15-.375 0 0-.15-.075-.1-.3.025-.124.15-.773.324-1.572.824-.425 1.773-.9 2.347-1.199l.05-.025c-.05.624-.15 1.723-.224 2.697-.675.45-1.249.849-1.349.899-.15.1-.3.05-.324.025-.1-.1-.3-.1-.4 0a.284.284 0 0 0-.075.2c0 .074.025.15.075.2.1.1.225.149.375.174.05 0 .1.025.15.025a.9.9 0 0 0 .499-.15c.075-.05.474-.324.974-.649-.05.6-.075 1.049-.1 1.149-.025.324.1.524.2.649.1.1.224.2.35.224h.074c.125 0 .225-.074.275-.2.05-.15-.05-.299-.2-.349 0 0-.15-.05-.15-.3 0-.124.075-.774.125-1.598.774-.524 1.623-1.098 2.147-1.448l.075-.05v.2c.025.65.05 1.623.1 2.497-.724.624-1.149.999-1.223 1.049-.075.05-.15.1-.2.1-.05 0-.1-.025-.125-.025a.34.34 0 0 0-.4.05.194.194 0 0 0-.05.2c0 .074.05.15.1.174.1.075.25.125.4.15h.05c.2 0 .4-.075.574-.225.075-.05.375-.324.874-.774.025.6.05 1.049.05 1.149.025.324.15.499.275.624.1.1.224.15.374.175h.05c.125 0 .25-.1.275-.225a.282.282 0 0 0-.225-.325s-.175-.025-.175-.274c0-.125-.025-.774-.075-1.598.525-.45 1.199-1.049 2.023-1.773.175 1.099.324 1.972.424 2.672-.55.599-.998 1.123-1.073 1.198-.15.15-.275.125-.325.1a.282.282 0 0 0-.375.1.243.243 0 0 0-.024.225.448.448 0 0 0 .124.174c.1.05.225.1.375.1h.025c.15 0 .4-.075.6-.3.074-.074.374-.424.773-.873.1.674.175 1.048.175 1.123.05.3.225.475.35.575.124.074.25.124.399.15.15 0 .275-.126.275-.275 0-.15-.1-.275-.275-.3 0 0-.175 0-.2-.25-.025-.124-.125-.774-.25-1.573.65-.724 1.374-1.523 1.798-1.997v.025c.175.624.475 1.648.724 2.572-.474.674-.874 1.223-.923 1.323-.1.125-.175.15-.225.15h-.075c-.125-.05-.3.025-.375.15a.346.346 0 0 0 0 .224.225.225 0 0 0 .15.15c.075.025.175.05.275.05h.125c.15-.025.374-.1.574-.375.05-.074.325-.449.674-.948.175.574.3 1.023.325 1.098.1.3.274.45.424.525.125.05.225.1.35.1h.05c.15 0 .274-.15.25-.3 0-.15-.126-.25-.275-.25v.025h-.025v-.025c-.025 0-.175 0-.225-.225-.025-.1-.225-.749-.45-1.523a73.405 73.405 0 0 0 1.449-2.072l.1-.125c.25.574.674 1.598 1.048 2.497-.4.724-.699 1.323-.774 1.423-.1.2-.25.175-.274.175-.15-.05-.3.05-.35.2a.243.243 0 0 0 .025.224c.025.075.1.125.175.125.05.025.125.025.2.025.074 0 .15 0 .224-.025.15-.05.375-.15.525-.424.05-.075.274-.5.549-1.024.225.55.4.974.45 1.049.124.3.324.424.474.474.1.025.2.05.274.05h.125a.282.282 0 0 0 .225-.324.293.293 0 0 0-.275-.225h-.075c-.05 0-.174-.025-.25-.2-.05-.1-.299-.724-.624-1.473.45-.849.974-1.823 1.274-2.372.524.924.974 1.723 1.348 2.347-.3.749-.55 1.398-.6 1.498-.049.15-.174.2-.249.2h-.05c-.125 0-.25.1-.274.225 0 .074 0 .15.05.2.05.05.1.1.174.124h.1c.1 0 .2-.025.3-.075.15-.075.35-.2.45-.5.024-.099.199-.523.424-1.098.324.575.524.924.574.999.15.275.375.375.524.424.075.025.125.025.2.025.075 0 .15 0 .225-.025a.336.336 0 0 0 .175-.15c.025-.074.05-.15.025-.224a.27.27 0 0 0-.35-.175c-.025 0-.175.025-.275-.15-.05-.1-.4-.674-.799-1.373.3-.749.625-1.598.85-2.172l.124-.325.475.65c.35.449.749 1.023 1.123 1.522-.2.8-.374 1.449-.4 1.574-.05.224-.224.224-.249.224a.277.277 0 0 0-.275.275c0 .075.025.15.075.2.05.05.125.075.2.1h.025c.125 0 .25-.025.374-.1a.9.9 0 0 0 .4-.55c.025-.1.15-.549.3-1.123.35.474.624.849.699.924.15.2.35.324.574.35h.1c.1 0 .2-.026.3-.076.15-.075.2-.224.124-.374-.05-.125-.224-.2-.374-.125h-.075a.298.298 0 0 1-.225-.125c-.075-.1-.474-.624-.949-1.273.25-.924.525-1.998.675-2.597l.024.025c.45.474 1.199 1.248 1.848 1.947-.1.824-.2 1.499-.225 1.598-.025.25-.2.25-.2.25-.15.025-.274.15-.249.3 0 .15.125.25.275.25h.025c.124 0 .274-.076.374-.15a.898.898 0 0 0 .325-.575c.025-.1.075-.549.15-1.148.424.424.724.774.799.824.174.174.399.274.624.274.15 0 .274-.025.374-.1.075-.05.1-.1.125-.174.025-.075 0-.15-.025-.225a.282.282 0 0 0-.374-.1s-.15.1-.325-.075c-.075-.075-.55-.574-1.099-1.148.125-.95.275-2.023.35-2.672.849.7 1.548 1.273 2.097 1.723 0 .824-.025 1.498-.025 1.623 0 .25-.174.274-.174.274a.282.282 0 0 0-.225.325c.025.125.15.225.275.225h.05c.124-.025.25-.1.374-.2.15-.15.25-.375.25-.624 0-.1 0-.55.025-1.174.524.425.824.674.898.724.175.125.35.2.55.2h.075a.846.846 0 0 0 .374-.15c.125-.1.15-.274.05-.4a.34.34 0 0 0-.4-.05c-.024 0-.05.026-.124.026-.075 0-.125-.025-.2-.075-.1-.075-.6-.5-1.223-1.024 0-.974.025-2.047.025-2.696.624.4 1.523.973 2.272 1.448.1.824.175 1.498.175 1.598.024.25-.125.3-.125.3a.27.27 0 0 0-.175.349c.05.125.15.2.275.2.025 0 .05 0 .1-.025a.64.64 0 0 0 .324-.25.783.783 0 0 0 .175-.65c0-.074-.05-.349-.125-1.173.5.325.899.575.974.625.15.1.324.15.474.15.05 0 .125 0 .175-.026.15-.025.275-.1.374-.2a.284.284 0 0 0 .075-.2.284.284 0 0 0-.075-.199c-.1-.1-.3-.1-.4 0-.024.025-.199.075-.324 0-.1-.05-.649-.424-1.348-.849-.075-.649-.175-1.523-.3-2.671 1 .474 1.798.874 2.447 1.173.175.8.35 1.448.375 1.573.05.225-.1.3-.1.3-.15.075-.2.224-.125.374.05.1.15.15.25.15.05 0 .075 0 .125-.025a.635.635 0 0 0 .3-.275.876.876 0 0 0 .1-.674c-.026-.075-.1-.474-.275-1.148.599.3.973.45 1.048.5.125.05.275.099.4.099.1 0 .2-.025.274-.05a.64.64 0 0 0 .325-.25c.1-.124.075-.3-.05-.4a.281.281 0 0 0-.4.05c-.024.026-.174.1-.324.026-.1-.05-.7-.35-1.448-.7-.15-.698-.375-1.572-.6-2.621 1.024.35 1.873.65 2.572.874.275.774.525 1.398.55 1.523.074.225-.05.325-.05.325a.282.282 0 0 0-.1.374c.05.075.15.125.224.125.05 0 .1-.025.15-.05a.794.794 0 0 0 .275-.3c.075-.15.125-.374.025-.674-.025-.1-.2-.524-.4-1.098.625.224 1 .35 1.099.374.1.025.2.05.3.05.124 0 .25-.025.374-.075a.794.794 0 0 0 .3-.274c.05-.075.05-.15.025-.2-.025-.075-.075-.125-.125-.175a.282.282 0 0 0-.375.1c-.025.025-.075.1-.2.1-.05 0-.074 0-.124-.025-.1-.025-.75-.25-1.523-.5-.325-.898-.7-1.947-.924-2.521.35.075 1.573.324 2.647.549.374.724.674 1.348.724 1.448.1.225-.025.325-.025.325a.281.281 0 0 0-.05.4c.05.074.125.099.224.099a.227.227 0 0 0 .175-.075.71.71 0 0 0 .225-.35c.05-.15.075-.399-.05-.674-.05-.074-.225-.424-.524-1.048.574.125 1.023.224 1.123.224.075.025.125.025.2.025.175 0 .325-.05.474-.124a.69.69 0 0 0 .275-.325c.05-.15 0-.3-.15-.375-.125-.05-.3 0-.374.15 0 0-.05.125-.225.125h-.075c-.1-.025-.774-.15-1.573-.324-.325-.625-.724-1.424-1.223-2.397l.174.025c.65.05 1.623.15 2.497.224.45.674.824 1.249.9 1.349.124.2.024.324.024.324-.1.1-.1.3 0 .4.05.05.125.075.2.075.075 0 .15-.025.2-.075.1-.1.15-.225.2-.375.05-.225 0-.45-.15-.65l-.65-.973c.6.05 1.049.1 1.149.1h.075c.274 0 .45-.1.55-.2.099-.1.199-.224.224-.35a.243.243 0 0 0-.025-.224.188.188 0 0 0-.175-.125c-.15-.05-.3.05-.35.175 0 0-.05.175-.3.15-.124 0-.773-.075-1.597-.125a92.346 92.346 0 0 0-1.498-2.222h.25c.624-.025 1.597-.05 2.446-.075.55.624.974 1.123 1.049 1.223.15.175.05.325.05.325-.1.125-.075.3.05.4.05.024.1.05.175.05.1 0 .174-.05.224-.1.075-.1.125-.25.15-.375a.754.754 0 0 0-.224-.624c-.05-.075-.375-.425-.775-.9.6-.024 1.05-.024 1.149-.05.325-.024.5-.149.624-.274.1-.1.175-.224.175-.374a.194.194 0 0 0-.05-.2c-.05-.05-.1-.1-.175-.125a.282.282 0 0 0-.324.225s-.025.175-.275.175c-.125 0-.774.025-1.598.05-.5-.575-1.049-1.224-1.473-1.698l-.275-.325h.025c.65-.1 1.698-.275 2.647-.4.6.55 1.099 1 1.198 1.1.175.174.1.299.1.324a.282.282 0 0 0 .1.374c.05.025.1.05.15.05.1 0 .2-.05.25-.15.075-.124.1-.25.1-.399a.85.85 0 0 0-.3-.6c-.075-.074-.4-.374-.874-.798.6-.1 1.049-.175 1.149-.175.3-.05.474-.225.574-.35.075-.124.125-.25.15-.4a.284.284 0 0 0-.075-.199c-.05-.05-.125-.1-.2-.1a.277.277 0 0 0-.275.275s0 .175-.25.2c-.124.025-.773.125-1.572.25-.65-.6-1.424-1.299-1.973-1.798h.025c.1-.025 1.398-.4 2.572-.724.674.474 1.223.873 1.323.948.2.15.125.3.125.3-.05.15 0 .3.15.374.025.025.075.025.1.025.1 0 .224-.074.25-.174.05-.125.074-.275.05-.4-.026-.15-.1-.374-.375-.574-.075-.05-.45-.325-.949-.674.574-.15 1.024-.3 1.099-.325.224-.075.424-.225.524-.4a.79.79 0 0 0 .1-.399c0-.15-.125-.25-.3-.25-.15 0-.274.15-.25.3 0 0 0 .175-.224.25-.1.025-.75.225-1.548.424-.525-.374-1.124-.799-1.598-1.148l-.425-.3c-.075-.05-.125-.075-.174-.125.649-.274 1.622-.674 2.496-1.048.724.4 1.324.724 1.424.774.224.124.174.274.174.274-.05.15.05.3.2.35h.075c.125 0 .225-.075.275-.2a1.21 1.21 0 0 0 0-.424.881.881 0 0 0-.425-.525c-.075-.05-.424-.224-1.024-.549.55-.225.974-.4 1.05-.45.299-.124.424-.324.474-.474a.74.74 0 0 0 .05-.4.282.282 0 0 0-.325-.224.282.282 0 0 0-.225.325s.025.174-.2.25c-.1.05-.599.249-1.473.623-.624-.324-1.398-.774-2.347-1.273.525-.3 1.498-.849 2.347-1.323.774.3 1.399.549 1.498.599.225.1.2.25.2.25-.025.15.075.3.225.324h.05c.125 0 .25-.1.274-.225a.74.74 0 0 0-.05-.399c-.074-.4-.2-.6-.499-.7zm-3.595.35l-1.174.674s-.025 0-.025.025c-.025 0-.025.025-.05.025l-.025.024s-.025 0-.025.025v.25s0 .025.025.05l.025.025c.025.025.05.05.1.075.025.025.125.075.25.15l.55.3c.449.25 1.023.549 1.597.873-.524.225-1.148.475-1.848.774-.424.175-.699.3-.699.3s-.025 0-.025.025c-.025 0-.025.025-.05.025s-.025.025-.025.025-.025 0-.025.025c0 0 0 .025-.024.025 0 0 0 .025-.025.025V31.97s0 .024.025.024v.025c.024.025.05.075.1.1.074.05.299.225.624.45.449.3 1.023.724 1.573 1.123-.7.2-1.424.4-1.923.55l-.749.2s-.025 0-.025.024c-.025 0-.025.025-.05.025s-.025.025-.05.025c0 0-.025 0-.025.025l-.025.025s-.025 0-.025.025v.025c0 .025-.025.025-.025.05V34.816s0 .025.025.025v.025c.025.025.025.05.05.075l.025.025c.075.075.325.3.674.624.375.324.85.774 1.324 1.198-.55.075-1.099.175-1.573.25l-.675.1c-.274.05-.449.075-.449.075h-.025c-.025 0-.025 0-.05.025-.025 0-.025.025-.05.025h-.025l-.025.025s-.025 0-.025.025v.025c0 .025-.025.025-.025.05s0 .025-.025.05V37.587c0 .025.025.05.05.075 0 0 .3.35.7.8.324.374.723.823 1.098 1.273-.749.025-1.498.05-2.047.075l-.724.025H50.047c-.025 0-.025 0-.05.024h-.025l-.025.025s-.025 0-.025.025v.025c0 .025-.025.025-.025.05s-.025.025-.025.05v.15c0 .025.025.05.025.075l.5.749c.274.424.673.999 1.023 1.548-.6-.05-1.224-.1-1.698-.15l-.3-.025c-.424-.05-.724-.075-.749-.075h-.05c-.025 0-.025 0-.05.025h-.024l-.025.025c-.025 0-.025.025-.05.025l-.025.025c-.025.025-.025.025-.025.05v.175c0 .025 0 .05.025.075 0 0 .1.2.274.524l.325.65c.2.399.424.848.65 1.273-.326-.075-.65-.125-.95-.2l-.924-.2c-.499-.1-.824-.174-.824-.174H46.851c-.025 0-.025.024-.05.024 0 0-.025 0-.025.025l-.05.05s-.025.025-.025.05l-.025.025v.025s0 .025-.025.025V44.953s.05.175.15.425l.274.774c.15.424.325.898.5 1.373-.7-.225-1.374-.475-1.773-.6-.474-.174-.824-.274-.824-.274H44.828c-.025 0-.025.025-.05.025-.025.025-.05.025-.075.05l-.025.025-.025.025v.025l-.025.025V46.975c0 .025.075.35.2.85l.1.424c.1.424.225.924.325 1.398-.55-.25-1.099-.524-1.548-.749-.55-.275-.95-.45-.95-.45-.024-.024-.074-.024-.124-.024h-.025c-.025 0-.05 0-.05.025-.025 0-.05.025-.075.05l-.025.025s-.025 0-.025.025c0 0 0 .024-.025.024l-.025.025v.125l.075.7c.075.574.15 1.323.225 2.022-.55-.35-1.099-.7-1.523-.974l-.4-.25-.374-.25c-.025-.024-.05-.024-.075-.024h-.125c-.025 0-.05.025-.075.025 0 0-.025 0-.025.025l-.05.05-.025.025v.025s0 .025-.025.025c0 .024-.025.05-.025.074v.974c0 .5-.025 1.149-.025 1.748-.499-.424-1.023-.849-1.423-1.174-.4-.324-.699-.574-.699-.574-.025-.025-.05-.025-.075-.05-.025 0-.025 0-.05-.025h-.05c-.05 0-.1.025-.125.025h-.025c-.024.025-.05.025-.05.05 0 0-.024 0-.024.025 0 0 0 .025-.025.025 0 0-.025.025-.025.05s-.025.05-.025.075l-.125.999c-.075.5-.15 1.123-.225 1.723-.4-.4-.799-.824-1.148-1.199l-.5-.524c-.15-.175-.25-.275-.25-.275-.024-.025-.05-.05-.074-.05-.025 0-.025-.025-.05-.025-.05-.025-.1 0-.15 0-.025 0-.025 0-.05.025 0 0-.025 0-.025.025-.025 0-.025.025-.05.025 0 0 0 .025-.025.025 0 0 0 .025-.025.025-.025.025-.025.05-.025.075 0 0-.075.25-.15.624l-.075.3c-.124.474-.3 1.123-.449 1.748-.375-.5-.75-1.024-1.074-1.424l-.574-.774c-.025-.025-.05-.05-.075-.05l-.025-.025h-.125c-.025 0-.05 0-.05.025h-.025c-.025 0-.025 0-.05.025l-.024.026-.025.025c-.025.024-.025.05-.05.074l-.3.774c-.15.375-.424 1.074-.7 1.773-.224-.4-.449-.799-.648-1.148l-.425-.724c-.175-.325-.3-.525-.3-.525-.024-.025-.024-.05-.05-.075l-.024-.025c-.025 0-.05 0-.05-.025h-.175c-.025 0-.05 0-.05.025l-.025.025c-.025.025-.05.05-.05.075 0 0-.125.225-.3.55l-.15.299c-.249.45-.549.999-.823 1.548-.25-.599-.525-1.223-.724-1.698l-.1-.2c-.15-.374-.275-.624-.275-.649-.025-.025-.025-.05-.05-.075l-.025-.025c-.025 0-.025-.025-.05-.025h-.025c-.025 0-.05 0-.05-.025h-.125c-.024 0-.024.025-.024.025-.025.025-.05.025-.075.05 0 0-.125.175-.3.45l-.2.274c-.3.425-.699.974-1.073 1.523a60.269 60.269 0 0 0-.5-1.722c-.15-.525-.25-.9-.274-.924 0-.025-.025-.05-.05-.075v-.025l-.025-.025c-.025 0-.025-.025-.05-.025 0 0-.025 0-.025-.025-.025 0-.025 0-.05-.025a.16.16 0 0 0-.15 0c-.025 0-.025.025-.025.025-.025.025-.05.025-.075.05 0 0-.274.3-.624.7l-.275.299c-.274.324-.624.674-.924 1.023-.074-.449-.15-.874-.2-1.298l-.1-.6c-.074-.499-.124-.823-.124-.848 0-.025-.025-.05-.025-.075 0 0 0-.025-.025-.025 0 0 0-.025-.025-.025 0 0-.025 0-.025-.025l-.05-.05s-.025 0-.025-.025c-.025-.025-.075-.025-.125-.025h-.05c-.024 0-.024 0-.05.025-.024 0-.05.025-.074.05 0 0-.25.225-.625.524l-.1.075c-.524.45-.973.85-1.348 1.174-.025-.6-.05-1.224-.075-1.723v-.125c-.025-.55-.025-.899-.025-.924 0-.025 0-.05-.025-.075 0 0 0-.025-.025-.025v-.025l-.025-.024c0-.025-.025-.025-.05-.025l-.024-.025c-.025-.025-.05-.025-.075-.025h-.125c-.025 0-.05.025-.075.025 0 0-.35.25-.849.574l-.025.025c-.4.274-.899.6-1.398.949.05-.65.1-1.299.15-1.798l.074-.949v-.125l-.024-.025s0-.025-.025-.025c0 0-.025 0-.025-.025l-.025-.025c-.025-.025-.05-.025-.075-.05-.025 0-.05-.025-.075-.025-.05 0-.075 0-.125.025-.025 0-.4.2-.924.475-.45.225-.974.5-1.498.774.125-.6.25-1.224.35-1.723.124-.574.2-.974.2-.999V47l-.026-.025v-.024l-.05-.05c-.05-.05-.074-.075-.124-.075h-.05-.1-.025c-.025 0-.375.125-.874.324l-.125.05c-.45.175-1.024.375-1.573.574.2-.574.4-1.173.55-1.647l.324-.974v-.125c0-.025 0-.025-.025-.05v-.025c0-.025-.025-.025-.05-.05l-.025-.025h-.025c-.025-.025-.05-.025-.075-.05H11.42s-.274.075-.649.15l-.824.2c-.374.1-.774.175-1.173.274.274-.549.549-1.123.749-1.598l.2-.424c.124-.275.224-.474.224-.474 0-.025.025-.05.025-.075v-.05c0-.025 0-.025-.025-.05v-.025c0-.025-.025-.05-.025-.05l-.025-.025s-.025-.025-.05-.025l-.025-.025h-.124s-.25.025-.6.075l-.45.05c-.498.05-1.098.125-1.672.2.325-.5.65-1.024.899-1.424l.075-.1c.3-.474.5-.798.5-.798 0-.025.024-.05.024-.075v-.15-.025c0-.025-.025-.025-.025-.05s-.025-.025-.025-.05v-.025s-.025 0-.025-.025l-.025-.025H8.35c-.025 0-.025-.025-.05-.025H5.478c.45-.55.924-1.124 1.248-1.548l.25-.3c.15-.174.225-.274.225-.3.025-.024.025-.05.05-.074v-.125-.025c0-.025 0-.025-.025-.05 0-.025-.025-.025-.025-.05v-.025s-.025 0-.025-.025l-.025-.025h-.025c-.025 0-.025-.025-.05-.025s-.025 0-.05-.025H7c-.025 0-.325-.05-.799-.1-.524-.074-1.223-.15-1.898-.25.525-.499 1.074-1.023 1.449-1.397l.499-.5.025-.025c.025-.025.05-.05.05-.075v-.025s0-.025.025-.025V35.115 35.041c0-.025 0-.025-.025-.05v-.025l-.025-.025s0-.025-.025-.025c0 0-.025 0-.025-.025-.025 0-.025-.025-.05-.025s-.025-.025-.05-.025h-.025c-.025 0-.4-.1-.949-.25-.5-.125-1.123-.275-1.698-.424.475-.375.974-.75 1.399-1.049l.799-.6c.025-.024.075-.05.1-.1v-.024l.024-.025V32.219c0-.025 0-.05-.024-.05v-.025s0-.025-.025-.025c0 0 0-.025-.025-.025 0 0-.025 0-.025-.025l-.025-.025c-.025 0-.025-.025-.05-.025 0 0-.025 0-.025-.025 0 0-.325-.124-.8-.3l-.1-.05c-.474-.174-1.073-.424-1.647-.648.424-.25.874-.5 1.273-.724l.7-.4c.224-.125.349-.2.399-.225.025-.025.075-.05.1-.075l.025-.024v-.2-.05s0-.025-.025-.05l-.025-.025c0-.025-.025-.025-.025-.025-.025-.025-.025-.025-.05-.025l-.025-.025s-.225-.125-.55-.3l-.249-.124c-.45-.25-1.049-.55-1.623-.874.474-.2.974-.4 1.373-.6l.45-.2c.374-.15.624-.274.674-.299.05-.025.075-.025.1-.075l.025-.025s0-.025.025-.025c0 0 0-.025.025-.025v-.125-.1s0-.024-.025-.024c0-.025-.025-.025-.025-.05s-.025-.025-.025-.05l-.025-.025s-.225-.175-.574-.4l-.175-.125c-.425-.3-.95-.674-1.498-1.048.649-.2 1.323-.375 1.822-.525l.275-.075c.35-.1.574-.174.574-.174.025 0 .05-.025.075-.025.025 0 .025-.025.025-.025s.025 0 .025-.025l.025-.025s.025 0 .025-.025v-.025c0-.025.025-.025.025-.05v-.05-.1s0-.025-.025-.025c0-.025-.025-.025-.025-.05s-.025-.025-.05-.05v-.025s-.25-.224-.574-.524l-.15-.125c-.374-.35-.849-.774-1.323-1.173.649-.1 1.323-.225 1.822-.3.525-.075.874-.15.9-.15.024 0 .05-.025.074-.025 0 0 .025 0 .025-.025 0 0 .025 0 .025-.025l.025-.025s.025 0 .025-.025v-.025c0-.025.025-.025.025-.05s0-.025.025-.05V20.71c0-.025-.025-.05-.05-.075 0 0-.25-.275-.6-.674l-.149-.175c-.325-.35-.7-.8-1.074-1.224.675-.025 1.374-.05 1.898-.075l.35-.025c.25 0 .399-.024.474-.024h.025c.05 0 .075 0 .1-.025h.025s.025 0 .025-.025l.025-.025s.025 0 .025-.025v-.025c0-.025.025-.025.025-.05s.025-.025.025-.05v-.15c0-.025-.025-.05-.025-.075l-.5-.749c-.3-.424-.674-.974-1.048-1.523.674.05 1.348.1 1.872.15l.55.05c.2.025.324.025.324.025h.025c.025 0 .075 0 .1-.025h.025c.025 0 .025-.025.025-.025l.025-.025s.025-.025.025-.05.025-.025.025-.05v-.175c0-.025 0-.05-.025-.075 0 0-.175-.35-.425-.824l-.124-.25c-.2-.399-.45-.898-.7-1.373.65.125 1.299.275 1.798.375.45.1.774.15.874.175h.125c.025 0 .075 0 .1-.025.025 0 .025-.025.025-.025.025 0 .025-.025.05-.025l.025-.025.05-.05v-.025c0-.025.025-.025.025-.05V13.243l-.3-.824c-.175-.474-.425-1.123-.65-1.748.55.175 1.1.375 1.574.525l.3.1c.399.124.673.224.748.25.025.024.075.024.1.024h.1c.025 0 .05-.025.075-.025l.075-.075v-.025c0-.025.025-.025.025-.05V11.246s-.05-.25-.15-.6l-.075-.25c-.125-.499-.274-1.173-.45-1.822.6.3 1.25.574 1.724.799l.3.15c.299.15.474.225.499.225.025.024.075.024.124.024h.05c.025 0 .05 0 .05-.024 0 0 .025 0 .025-.025l.075-.075c0-.025.025-.025.025-.05V9.448s-.025-.225-.075-.6l-.05-.474a71.782 71.782 0 0 0-.2-1.648c.525.325 1.05.674 1.474.924l.849.524h.025c.025 0 .025.025.05.025h.099c.025 0 .05 0 .075-.025h.025c.05-.024.1-.05.125-.1V8.05s0-.025.025-.025c0-.025.025-.05.025-.075V5.203c.5.4.999.8 1.373 1.124l.774.624c.025.025.025.025.05.025s.025 0 .05.025h.05c.05 0 .075 0 .1-.025l.025-.025c.025-.025.05-.025.05-.05 0 0 .025 0 .025-.025 0 0 0-.025.025-.025 0 0 .025-.025.025-.05s.025-.05.025-.075l.125-1.048c.05-.5.125-1.099.2-1.673.424.45.873.899 1.248 1.273l.25.25c.25.274.424.45.424.45.025.024.05.024.075.05 0 0 .025 0 .025.024h.1c.025 0 .075 0 .1-.025 0 0 .025 0 .025-.025.025 0 .025-.025.05-.025h.024s0-.025.025-.025c0 0 .025-.025.025-.05s.025-.025.025-.05v-.025c0-.025.1-.374.225-.873l.15-.625c.1-.374.2-.774.3-1.173.324.424.649.849.923 1.223l.4.525c.2.274.35.449.35.449v.025l.024.025c.025.025.05.025.075.05h.05c.025 0 .05 0 .075.025h.025c.025 0 .05 0 .075-.025.025 0 .025-.025.05-.025h.025l.025-.025s.025-.025.025-.05.025-.025.025-.05c0 0 .075-.225.2-.55l.124-.324c.225-.599.55-1.423.824-2.172.375.674.8 1.398 1.124 1.972l.05.1c.25.45.424.75.424.774v.025c0 .025.025.025.025.05l.05.05c.05.025.1.025.125.025.05 0 .1 0 .125-.025.025-.025.05-.025.05-.05l.025-.025v-.025s.075-.15.225-.4l.25-.449c.249-.449.549-.998.848-1.548.275.65.55 1.299.75 1.798l.299.75v.024c0 .025.025.025.025.05s.025.025.025.05l.025.025h.025c.025 0 .025.025.05.025h.1c.025 0 .05 0 .074-.025h.025c.025 0 .05-.025.075-.05l.025-.025s.25-.35.6-.849l.124-.175c.25-.374.575-.799.874-1.198.1.374.225.774.325 1.148l.15.55c.15.574.274.949.274.973 0 .025.025.05.025.05l.025.025s0 .025.025.025h.025c.025 0 .025.025.05.025s.025.025.05.025.075.025.1.025h.1s.025 0 .025-.025c.025-.025.05-.025.075-.05 0 0 .3-.324.699-.749.324-.374.749-.824 1.148-1.248.1.674.2 1.373.3 1.922l.075.475c.025.2.05.324.05.324 0 .025 0 .05.025.075 0 0 0 .025.025.025 0 0 0 .025.025.025 0 0 .025 0 .025.025l.05.05.025.025c.025.025.075.025.1.025h.074c.025 0 .025 0 .05-.025.025 0 .05-.025.05-.025s.225-.175.525-.45l.499-.424c.325-.274.7-.599 1.049-.899.025.625.05 1.274.05 1.773l.025.574v.425c0 .025 0 .05.025.075 0 0 0 .025.024.025v.025c.025.05.075.075.125.1h.025c.025 0 .05.025.075.025h.1c.025 0 .025-.025.05-.025h.025l1.024-.675 1.273-.848c-.05.674-.125 1.398-.175 1.947l-.075.8v.124c0 .025.025.025.025.05l.075.075h.025c.025 0 .05.025.075.025h.125c.025 0 .025 0 .05-.025l.724-.35c.474-.25 1.124-.574 1.748-.874-.125.6-.25 1.224-.375 1.723-.125.574-.2.974-.2.974v.125c0 .025.025.025.025.05v.025l.075.075h.025c.025 0 .05.025.075.025H44.853c.025 0 .075 0 .1-.025.075-.025.4-.15.849-.3l.5-.175c.399-.15.823-.3 1.223-.45-.225.625-.425 1.25-.6 1.724l-.3.873v.125c0 .025 0 .025.026.05v.025c0 .025.025.05.05.05l.025.025c.025 0 .025.025.05.025s.025.025.05.025.05.025.1.025H47l1.05-.25c.474-.1 1.048-.25 1.597-.374-.324.649-.624 1.298-.874 1.773l-.35.699c0 .025-.024.05-.024.075v.149c0 .025.025.025.025.05s.025.025.025.05l.025.025c.025 0 .025.025.05.025.05.025.074.025.124.025h.025c.025 0 .15-.025.375-.05l.65-.075c.473-.05 1.098-.124 1.672-.174-.25.4-.524.799-.75 1.173l-.548.874c-.125.175-.175.275-.175.3 0 .025-.025.05-.025.075V17.837c0 .025.025.025.025.05s.025.025.025.05v.025s.025 0 .025.025l.025.025s.025 0 .025.025h.025c.025.025.075.025.1.025h.923c.5 0 1.174.025 1.823.025-.4.474-.799.974-1.124 1.348l-.649.774c-.025.025-.025.05-.05.075v.15c0 .025 0 .025.025.05 0 .025.025.025.025.05v.025s.025 0 .025.025l.025.025s.025 0 .025.025c0 0 .025 0 .025.025.025.025.05.025.075.025l.949.125c.5.074 1.123.15 1.773.25-.475.449-.95.898-1.324 1.248-.4.374-.674.649-.699.649l-.025.025c-.025.025-.025.025-.025.05s-.025.025-.025.05v.175c0 .024 0 .024.025.05v.024s0 .025.025.025c0 0 0 .025.025.025 0 0 .025 0 .025.025l.025.025c.025.025.05.025.05.025s.325.075.774.2l.474.125c.425.125.924.25 1.399.374-.525.4-1.074.8-1.498 1.124l-.275.2c-.275.2-.425.324-.45.324l-.024.025c-.025 0-.025.025-.05.05 0 .025-.025.025-.025.05 0 0 0 .025-.025.025v.225s0 .025.025.025c0 0 0 .025.025.025l.025.025c.025.025.074.05.124.075.1.025.425.174.9.35l.074.024c.475.175 1.024.4 1.573.624-.374.225-.799.475-1.173.7zm18.801-9.913v.874h-3.021v2.721h3.021v21.398h3.27V21.707h6.143v-2.721h-6.142v-.874c0-5.368 3.545-6.042 5.368-6.042.724 0 1.149.1 1.149.1V9.247s-.575-.1-1.499-.1c-2.671 0-8.289.999-8.289 8.964z" fill="#07A1C4" stroke="none" stroke-width="1" fill-rule="evenodd"/></svg>
